<svg id="Calque_1" data-name="Calque 1" xmlns="http://www.w3.org/2000/svg" xmlns:xlink="http://www.w3.org/1999/xlink" viewBox="0 0 259 180"><defs><style>.cls-1{fill:url(#Dégradé_sans_nom_2);}.cls-2{fill:url(#Dégradé_sans_nom_2-2);}</style><linearGradient id="Dégradé_sans_nom_2" x1="78.74" y1="148.16" x2="192.74" y2="74.16" gradientTransform="matrix(1, 0, 0, -1, 0.03, 204.05)" gradientUnits="userSpaceOnUse"><stop offset="0" stop-color="#f49819"/><stop offset="1" stop-color="#e7391e" stop-opacity="0.42"/></linearGradient><linearGradient id="Dégradé_sans_nom_2-2" x1="173.59" y1="86.95" x2="217.57" y2="86.95" gradientTransform="matrix(1, 0, 0, 1, 0, 0)" xlink:href="#Dégradé_sans_nom_2"/></defs><path class="cls-1" d="M62.13,88.07a.53.53,0,0,1-.24.06h-.48a7.94,7.94,0,0,1-2-.3,14.84,14.84,0,0,1-2.16-.66,9.39,9.39,0,0,1-1.8-.84,2.64,2.64,0,0,1-.9-.84q-.06-.84-.06-1.74V82a108.06,108.06,0,0,1,1-14,132.25,132.25,0,0,1,3.3-15.84q.24-.84.48-2.1t.6-2.82a22.55,22.55,0,0,0-3.42,3.66,71.74,71.74,0,0,0-4.2,5.88q-2.16,3.36-4.38,7.44t-4,8.22q-1.8,4.14-3.12,8.22a36.39,36.39,0,0,0-1.56,7.56,13.76,13.76,0,0,1-4-1.68,2.51,2.51,0,0,1-1.08-2,10.53,10.53,0,0,1,.66-3.06q.66-2,1.86-4.68t2.94-6q1.74-3.36,3.84-7.2,2.4-4.38,4.68-8.22t4.56-7A55.37,55.37,0,0,1,57,43a19,19,0,0,1,4.26-3.48,8.07,8.07,0,0,1,2.22.42,20.6,20.6,0,0,1,2.76,1,16.64,16.64,0,0,1,2.4,1.26q1.08.6,1.2,1a42.75,42.75,0,0,0-2,5q-1.14,3.36-2.34,7.62t-2.22,9.06q-1,4.74-1.62,9.12,1.38-3.3,3.18-6.84t3.9-7.08q2-3.54,4.14-6.84t4.2-6q2-2.76,3.78-4.8a19,19,0,0,1,3.18-3,8.07,8.07,0,0,1,2.22.42,20.6,20.6,0,0,1,2.76,1,16.64,16.64,0,0,1,2.4,1.26q1.08.6,1.2,1a40.14,40.14,0,0,0-3.36,8.34q-1.44,4.92-2.46,10.32t-1.5,10.74q-.48,5.28-.48,9.48V85q0,1.5.12,3.12a10.68,10.68,0,0,1-2-.24,15.69,15.69,0,0,1-2.28-.54,12.81,12.81,0,0,1-2-.84,3,3,0,0,1-1.26-1q-.06-.84-.06-1.74V82a108.06,108.06,0,0,1,1-14,132.25,132.25,0,0,1,3.3-15.84q.24-.84.54-2.28t.6-3a14.15,14.15,0,0,0-3.84,3.24,46.83,46.83,0,0,0-4.32,5.76q-2.16,3.36-4.32,7.5t-3.84,8.46a89,89,0,0,0-2.88,8.52A40.12,40.12,0,0,0,62.13,88.07Zm30.24-8.46q0-.54.06-1.32t.36-2.16q.24-1.38.6-3.3t1-4.62q.12-.6.54-1.92A24.43,24.43,0,0,1,96,63.53a20.79,20.79,0,0,1,1.68-2.88,6.44,6.44,0,0,1,2.4-2,10.18,10.18,0,0,1,2.7,1.26,8.79,8.79,0,0,1,2.88,2.7,22.65,22.65,0,0,0-2.34,3.12q-.9,1.56-1.68,3.24t-1.38,3.48q-.6,1.8-1.38,3.78-.66,1.68-1.2,3.48a12.43,12.43,0,0,0-.6,3.06,12.44,12.44,0,0,1-.06,1.5q0,.48-.3.48a3.29,3.29,0,0,1-1-.3,6.76,6.76,0,0,1-1.5-.9A7.75,7.75,0,0,1,93,81.89,4.21,4.21,0,0,1,92.37,79.61Zm11.46-26a4.92,4.92,0,0,1,.18-1.08,2.67,2.67,0,0,1-.54-.9,3.8,3.8,0,0,1-.18-1.08,11.46,11.46,0,0,1,.12-1.44q.18-1,.42-2t.6-2.22q.36-1.2.72-2.16a4.73,4.73,0,0,1,1.74.42,10.54,10.54,0,0,1,2.16,1,11.65,11.65,0,0,1,2,1.38,7.46,7.46,0,0,1,1.38,1.38q-.66.66-1.74,1.86a32.2,32.2,0,0,0-2.1,2.46q-1,1.26-1.86,2.4a13.53,13.53,0,0,0-1.08,1.62,2.47,2.47,0,0,1-1.26-.6A1.51,1.51,0,0,1,103.83,53.57Zm12.38,1a6.3,6.3,0,0,1,2.94,2.16,10.75,10.75,0,0,1,2,3.6,28.89,28.89,0,0,1-2,3.9q-1.38,2.28-2.76,4.68t-2.52,4.5a11.27,11.27,0,0,0-1.26,3.48q1-1,2.1-2.34t2.28-2.7q1.14-1.38,2.1-2.46t1.5-1.68q1.14-1.2,2.7-2.76a37.87,37.87,0,0,1,3.24-3,22.64,22.64,0,0,1,3.48-2.4,6.4,6.4,0,0,1,3.18-1,3.4,3.4,0,0,1,2.58,1.08,8.32,8.32,0,0,1,1.68,2.16q0,.12-.48.36a4.62,4.62,0,0,0-1.26,1.14,25,25,0,0,0-1.92,3q-1,1.86-2,4.08a34.62,34.62,0,0,0-1.62,4.44,15,15,0,0,0-.66,4.14,3.31,3.31,0,0,0,.36,1.92,1.54,1.54,0,0,0,1.14.42,3.58,3.58,0,0,0,1.38-.3,3.2,3.2,0,0,1,1.14-.3.81.81,0,0,1,.36.54,1.49,1.49,0,0,1,.18.66,9.38,9.38,0,0,1-1.14.84,15.38,15.38,0,0,1-1.38.78,11,11,0,0,1-1.44.6,3.55,3.55,0,0,1-1.2.24,6.73,6.73,0,0,1-2.88-.54,4.48,4.48,0,0,1-1.74-1.32,5.21,5.21,0,0,1-.84-2,12.83,12.83,0,0,1-.24-2.52,12.37,12.37,0,0,1,.12-1.62,13.82,13.82,0,0,1,.48-2.1q.36-1.26,1-2.94t1.68-4.14a12.15,12.15,0,0,0-1.62.84,15.41,15.41,0,0,0-3.24,2.58q-2.82,2.7-5.1,5.34T112,81.77q-1.32,1.86-2.34,3.12a6.34,6.34,0,0,1-1.68,1.74,4.38,4.38,0,0,1-1.86-2,12.1,12.1,0,0,1-.9-2.64,17.57,17.57,0,0,1,.3-2.88q.36-1.74.9-3.84t1.44-4.5q.84-2.34,1.86-4.68a65.66,65.66,0,0,1,4.14-8.28A14.38,14.38,0,0,1,116.21,54.53ZM152,55.61a6.73,6.73,0,0,1,2.76.72,10.15,10.15,0,0,1,2.76,1.86,45.61,45.61,0,0,0-.78-4.5,25.22,25.22,0,0,0-1.32-4.44,40.37,40.37,0,0,0-2.28-5q-1.44-2.7-3.6-6.18a4.15,4.15,0,0,1,.78-1.26,11.27,11.27,0,0,1,1.44-1.32,13.85,13.85,0,0,1,1.68-1.14,5.34,5.34,0,0,1,1.68-.6,23.25,23.25,0,0,1,3.18,4.68,41.14,41.14,0,0,1,2.64,6,40,40,0,0,1,1.74,6.6,34.53,34.53,0,0,1,.66,6.54,30.08,30.08,0,0,1-.72,6.42,37.55,37.55,0,0,1-1.92,6.48,42.61,42.61,0,0,1-2.82,5.94,32.18,32.18,0,0,1-3.54,5,19.11,19.11,0,0,1-3.9,3.6,10.16,10.16,0,0,1-4.08,1.8,10.38,10.38,0,0,1-6.36-2.7,8.11,8.11,0,0,1-2.16-6,18.39,18.39,0,0,1,.6-4.44A35.23,35.23,0,0,1,140.09,69a39.25,39.25,0,0,1,2.46-4.62,33.67,33.67,0,0,1,3-4.08,25.3,25.3,0,0,1,3.24-3.06A8.28,8.28,0,0,1,152,55.61Zm-6.43,28.86a9,9,0,0,0,3.71-3.18,29.79,29.79,0,0,0,3.35-5.76A41.26,41.26,0,0,0,155,68.39a30.41,30.41,0,0,0,1-7.38V59.75a2.61,2.61,0,0,0-.05-.48,10,10,0,0,0-2.71,2,32.49,32.49,0,0,0-2.87,3.36,37,37,0,0,0-2.7,4.08q-1.28,2.22-2.28,4.44a28.83,28.83,0,0,0-1.59,4.26,13.3,13.3,0,0,0-.59,3.6C143.15,83.05,144,84.19,145.54,84.47ZM148,108.19q.18,1,.24,1.44a3.37,3.37,0,0,1,.12,1,8,8,0,0,1-.9,3.72,5.05,5.05,0,0,1-2.34,2.4,11.39,11.39,0,0,0-2.94-2.76,15.68,15.68,0,0,0-3.84-1.92A21.56,21.56,0,0,0,134,111a27,27,0,0,0-4.32-.36,20.82,20.82,0,0,0-4,.36,14.69,14.69,0,0,0-3.24.9,6.38,6.38,0,0,0-2.22,1.38,2.74,2.74,0,0,0-.78,1.92,4.8,4.8,0,0,0,1.62,2.7,24.67,24.67,0,0,0,3.54,2.64q2.1,1.26,4.62,2.52t5,2.4q3.06,1.44,5.28,2.7a14.73,14.73,0,0,1,3.66,2.7,9.45,9.45,0,0,1,2.16,3.3,12.49,12.49,0,0,1,.72,4.5,16.16,16.16,0,0,1-1,5.76,13.17,13.17,0,0,1-3,4.62,13,13,0,0,1-4.68,3.06,16,16,0,0,1-6.18,1.14,28.8,28.8,0,0,1-7.26-1,34.28,34.28,0,0,1-7.32-2.82,22.58,22.58,0,0,1-5.64-4,7.1,7.1,0,0,1-2.22-4.92,9.6,9.6,0,0,1,.66-3.06,13.34,13.34,0,0,1,2.52-3.9,9.47,9.47,0,0,0,1.92,4.26,17.64,17.64,0,0,0,5.34,4.56,26.79,26.79,0,0,0,6.78,2.82,28.69,28.69,0,0,0,6.6.84,14.91,14.91,0,0,0,5.46-.84,10.31,10.31,0,0,0,3.3-2,7.31,7.31,0,0,0,1.68-2.4,7.13,7.13,0,0,0,.54-1.92,3.47,3.47,0,0,0-1.14-2.28,11.08,11.08,0,0,0-2.82-2.16,37.87,37.87,0,0,0-4.08-2.16q-2.34-1.08-4.86-2.16-3.78-1.68-6.54-3.12a29.22,29.22,0,0,1-4.5-3,11.08,11.08,0,0,1-2.58-3.24,9,9,0,0,1-.78-3.84,11.12,11.12,0,0,1,2-6.36,12.62,12.62,0,0,1,5.88-4.56,17.18,17.18,0,0,1,4.08-1.2,27,27,0,0,1,4.32-.36,28,28,0,0,1,7.74,1.08A57.52,57.52,0,0,1,148,108.19Zm25.33,31.14q-1.38,4.38-2.76,8a63.87,63.87,0,0,1-2.94,6.6,43.84,43.84,0,0,1-3.36,5.58,42,42,0,0,1-4,4.86,21.56,21.56,0,0,1-5.7,4.38,12.45,12.45,0,0,1-5.88,1.56,12.82,12.82,0,0,1-3-.36,11.9,11.9,0,0,1-2.7-.9,9,9,0,0,1-2.28-1.32,4.36,4.36,0,0,1-1.44-1.56,1.52,1.52,0,0,1,.84-1.26q.72.66,1.2,1a6.3,6.3,0,0,0,1,.6,2.46,2.46,0,0,0,1,.3,9.34,9.34,0,0,0,1.14.06,12.35,12.35,0,0,0,6.66-2,22.74,22.74,0,0,0,6.18-5.7,41.93,41.93,0,0,0,5.34-8.94,70.16,70.16,0,0,0,4.08-11.7l-1.92,2.94q-1.14,1.74-2.52,3.48a30.16,30.16,0,0,1-2.88,3.06,8,8,0,0,1-2.82,1.86,8.06,8.06,0,0,1-2-.42,8,8,0,0,1-2-.9,7.89,7.89,0,0,1-1.62-1.44,4.36,4.36,0,0,1-1-1.92,24.84,24.84,0,0,1,.12-2.76,19.42,19.42,0,0,1,.42-2.34,50.65,50.65,0,0,1,1.56-5.16,58.66,58.66,0,0,1,2.46-5.64,43.91,43.91,0,0,1,3.12-5.22,16.8,16.8,0,0,1,3.6-3.84,7.54,7.54,0,0,1,1.2.12,7.12,7.12,0,0,1,1.5.3,9.78,9.78,0,0,1,1.5.6,3.87,3.87,0,0,1,1.26.84,29.31,29.31,0,0,0-2.88,4,65.3,65.3,0,0,0-4.92,9.84q-.3.66-.72,1.92t-.84,2.64q-.36,1.38-.66,2.7a10,10,0,0,0-.3,2.1,1.67,1.67,0,0,0,.12.72,3.51,3.51,0,0,0,.3.36,6.83,6.83,0,0,0,2.88-1.74,28,28,0,0,0,4.08-5q1.44-2.16,2.64-4.26t2.34-4.32l2.46-4.44q1.26-2.28,2.7-4.68a8.6,8.6,0,0,1,1.68.18,12.39,12.39,0,0,1,1.74.48,6,6,0,0,1,1.44.6,2.68,2.68,0,0,1,1,.66q-1.86,4-3.48,7.74T173.29,139.33Zm16.51-19.8a6.3,6.3,0,0,1,2.94,2.16,10.75,10.75,0,0,1,2,3.6,28.89,28.89,0,0,1-2,3.9q-1.38,2.28-2.76,4.68t-2.52,4.5a11.27,11.27,0,0,0-1.26,3.48q1-1,2.1-2.34t2.28-2.7q1.14-1.38,2.1-2.46t1.5-1.68q1.14-1.2,2.7-2.76a37.87,37.87,0,0,1,3.24-3,22.64,22.64,0,0,1,3.48-2.4,6.4,6.4,0,0,1,3.18-1,3.4,3.4,0,0,1,2.58,1.08,8.32,8.32,0,0,1,1.68,2.16q0,.12-.48.36a4.62,4.62,0,0,0-1.26,1.14,25,25,0,0,0-1.92,3q-1,1.86-2,4.08a34.62,34.62,0,0,0-1.62,4.44,15,15,0,0,0-.66,4.14,3.31,3.31,0,0,0,.36,1.92,1.54,1.54,0,0,0,1.14.42,3.58,3.58,0,0,0,1.38-.3,3.2,3.2,0,0,1,1.14-.3.81.81,0,0,1,.36.54,1.49,1.49,0,0,1,.18.66,9.38,9.38,0,0,1-1.14.84,15.38,15.38,0,0,1-1.38.78,11,11,0,0,1-1.44.6,3.55,3.55,0,0,1-1.2.24,6.73,6.73,0,0,1-2.88-.54,4.48,4.48,0,0,1-1.74-1.32,5.21,5.21,0,0,1-.84-2,12.83,12.83,0,0,1-.24-2.52,12.37,12.37,0,0,1,.12-1.62,13.82,13.82,0,0,1,.48-2.1q.36-1.26,1-2.94t1.68-4.14a12.15,12.15,0,0,0-1.62.84,15.41,15.41,0,0,0-3.24,2.58q-2.82,2.7-5.1,5.34t-4.56,5.88q-1.32,1.86-2.34,3.12a6.34,6.34,0,0,1-1.68,1.74,4.38,4.38,0,0,1-1.86-2,12.1,12.1,0,0,1-.9-2.64,17.57,17.57,0,0,1,.3-2.88q.36-1.74.9-3.84t1.44-4.5q.84-2.34,1.86-4.68a65.66,65.66,0,0,1,4.14-8.28A14.38,14.38,0,0,1,189.8,119.53Zm23,18.54a16.41,16.41,0,0,1,1.38-6.6,20.64,20.64,0,0,1,3.72-5.7,18.88,18.88,0,0,1,5.28-4,13.24,13.24,0,0,1,6.18-1.56,6.8,6.8,0,0,1,4.8,1.56,5.76,5.76,0,0,1,1.68,4.44,8.85,8.85,0,0,1-.42,2.7,8.43,8.43,0,0,1-1,2.28,5.93,5.93,0,0,1-1.44,1.68,2.88,2.88,0,0,1-1.68.6,3.16,3.16,0,0,1-1.5-.42,4.29,4.29,0,0,1-1.2-1.2q4-3.66,4-6.66,0-1.74-1.38-1.74a6,6,0,0,0-3,1.14,17,17,0,0,0-3.48,3,21,21,0,0,0-4,6.42,20.47,20.47,0,0,0-1.32,7.32q0,4.86,2.16,5.82a10.84,10.84,0,0,0,2.1-.54,25.72,25.72,0,0,0,2.58-1.08q1.38-.72,2.82-1.62t2.88-1.92a1.74,1.74,0,0,1,.6,1.2,22.3,22.3,0,0,1-2.34,2.46,29.14,29.14,0,0,1-2.76,2.22,23,23,0,0,1-2.82,1.62,7.91,7.91,0,0,1-2.34.9,8.41,8.41,0,0,1-3.72-1.26,10.87,10.87,0,0,1-3.06-2.7,14.64,14.64,0,0,1-2-3.84A14.14,14.14,0,0,1,212.85,138.07Z"/><path class="cls-2" d="M214.08,87.2V80.45a3.82,3.82,0,0,0-.49-7.32l-4.49-7.89-2.24,1.28,4,7a3.86,3.86,0,0,0-1.49,1.61l-9.79-3.39a4.56,4.56,0,0,0-8.93,0l-8.74,2.77a4.27,4.27,0,1,0-3.11,7.21,4.22,4.22,0,0,0,1.51-.28l3.84,4.61a6.59,6.59,0,0,0-.36,5.47l-3.39,3.31a4.59,4.59,0,1,0-3.34,8.47l1,5.34,2.54-.48-.93-5a4.61,4.61,0,0,0,2.54-6.49l3-2.95a6.48,6.48,0,0,0,4.53,2l3.57,5.18a4.59,4.59,0,0,0,3.59,7.42,4.58,4.58,0,0,0,4.56-4.58,3,3,0,0,0,0-.43l10-6.91a4.64,4.64,0,0,0,1.35.2,4.8,4.8,0,0,0,1.29-9.42Zm-35.91,13.66a2,2,0,1,1,2-2A2,2,0,0,1,178.17,100.86Zm30.25-11-12.11-1.82a6.54,6.54,0,0,0-4.54-5.13l2.58-5.67a3.94,3.94,0,0,0,.77.07,4.57,4.57,0,0,0,4.24-2.88l9.76,3.38a3.84,3.84,0,0,0,2.38,2.62V87.2A4.84,4.84,0,0,0,208.42,89.88Zm4.37-11.8A1.22,1.22,0,1,1,214,76.86,1.22,1.22,0,0,1,212.79,78.08Zm-17.67-7.33a2,2,0,1,1-2,2A2,2,0,0,1,195.12,70.75Zm-4.25,3.66A4.72,4.72,0,0,0,192,76.12l-3,6.58a6.46,6.46,0,0,0-3.18,1.36l-3.52-4.21a4.29,4.29,0,0,0,.73-2.39,3.64,3.64,0,0,0,0-.57Zm-13.74,3a1.68,1.68,0,1,1,1.68,1.69A1.69,1.69,0,0,1,177.13,77.46ZM186,89.19a3.94,3.94,0,1,1,3.94,4A3.95,3.95,0,0,1,186,89.19Zm11,16.56a2,2,0,1,1,2-2A2,2,0,0,1,196.92,105.75Zm0-6.58a4.61,4.61,0,0,0-1.49.25l-2.91-4.23a6.59,6.59,0,0,0,3.72-4.52l11.82,1.78a4.82,4.82,0,0,0,1.06,2.43l-8.66,6A4.53,4.53,0,0,0,196.92,99.17ZM212.79,94a2.21,2.21,0,1,1,2.2-2.21A2.2,2.2,0,0,1,212.79,94Z"/></svg>